<svg width="119" height="158" viewBox="0 0 119 158" fill="none" xmlns="http://www.w3.org/2000/svg">
<path d="M3.29176 59.25H13.1668V46.0832C13.1668 20.6727 33.8392 0 59.25 0C84.6608 0 105.333 20.6727 105.333 46.0832V59.25H115.208C117.028 59.25 118.5 60.7223 118.5 62.5418V144.834C118.5 152.095 112.595 158 105.333 158H13.1665C5.90494 158 0 152.095 0 144.833V62.5418C0 60.7223 1.4723 59.25 3.29176 59.25ZM49.3941 128.012C49.2914 128.941 49.5901 129.873 50.2138 130.571C50.8374 131.268 51.7311 131.667 52.6665 131.667H65.8332C66.7686 131.667 67.6623 131.268 68.2859 130.571C68.9096 129.873 69.2086 128.941 69.1056 128.012L67.029 109.339C70.401 106.886 72.4165 103.006 72.4165 98.75C72.4165 91.4885 66.5115 85.5832 59.2497 85.5832C51.9879 85.5832 46.0829 91.4882 46.0829 98.75C46.0829 103.006 48.0984 106.886 51.4704 109.339L49.3941 128.012ZM32.9168 59.25H85.5832V46.0832C85.5832 31.5633 73.77 19.75 59.25 19.75C44.73 19.75 32.9168 31.5633 32.9168 46.0832V59.25Z" fill="white"/>
</svg>
